<svg width="150" height="150" viewBox="0 0 150 150" fill="none" xmlns="http://www.w3.org/2000/svg">
<rect width="150" height="150" rx="20" fill="white"/>
<path d="M38.235 24.885C31.058 24.885 25.749 31.169 25.986 37.984C26.214 44.53 25.918 53.01 23.783 59.924C21.643 66.86 18.023 71.243 12.11 71.807V78.194C18.023 78.757 21.643 83.141 23.783 90.077C25.918 96.991 26.213 105.471 25.986 112.017C25.748 118.832 31.058 125.115 38.235 125.115H111.775C118.952 125.115 124.261 118.831 124.024 112.017C123.796 105.471 124.092 96.991 126.226 90.077C128.366 83.142 131.977 78.758 137.89 78.194V71.807C131.977 71.244 128.367 66.86 126.226 59.924C124.092 53.01 123.796 44.53 124.024 37.984C124.261 31.169 118.952 24.885 111.774 24.885H38.235ZM96.349 86.571C96.349 95.955 89.347 101.644 77.728 101.644H56.306C56.1758 101.644 56.0509 101.592 55.9588 101.5C55.8667 101.408 55.815 101.283 55.815 101.153V48.827C55.8149 48.7624 55.8275 48.6985 55.8521 48.6388C55.8767 48.5791 55.9129 48.5249 55.9585 48.4792C56.0041 48.4335 56.0582 48.3972 56.1179 48.3725C56.1775 48.3477 56.2414 48.335 56.306 48.335H77.615C87.304 48.335 93.662 53.581 93.662 61.635C93.662 67.288 89.385 72.348 83.935 73.235V73.531C91.353 74.344 96.349 79.479 96.349 86.571ZM75.571 55.096H64.293V71.018H73.793C81.135 71.018 85.184 68.063 85.184 62.78C85.184 57.83 81.703 55.096 75.571 55.096ZM64.293 77.336V94.884H75.988C83.633 94.884 87.683 91.818 87.683 86.054C87.683 80.291 83.52 77.336 75.496 77.336H64.293Z" fill="#7952B3"/>
</svg>
