<svg width="32" height="32" viewBox="0 0 32 32" fill="none" xmlns="http://www.w3.org/2000/svg">
<rect width="32" height="32" rx="6" fill="white"/>
<g clip-path="url(#clip0_1_137)">
<path d="M22.144 17.067V14.933L20.55 16L22.144 17.067ZM23.42 18.261C23.4198 18.2888 23.4178 18.3165 23.414 18.344L23.409 18.372L23.398 18.425L23.388 18.456C23.383 18.472 23.378 18.487 23.371 18.503L23.357 18.533C23.3504 18.5475 23.3434 18.5619 23.336 18.576L23.317 18.606C23.2942 18.6422 23.2673 18.6758 23.237 18.706L23.211 18.731C23.1994 18.7415 23.1874 18.7515 23.175 18.761L23.146 18.783L23.136 18.791L16.354 23.313C16.2492 23.383 16.126 23.4204 16 23.4204C15.874 23.4204 15.7508 23.383 15.646 23.313L8.864 18.79L8.854 18.782C8.83115 18.7662 8.80943 18.7488 8.789 18.73L8.763 18.705L8.731 18.671L8.71 18.643C8.68371 18.6089 8.66124 18.572 8.643 18.533L8.629 18.502C8.62273 18.4866 8.61706 18.4709 8.612 18.455L8.602 18.425C8.598 18.407 8.594 18.389 8.592 18.371L8.586 18.343C8.58217 18.3155 8.58016 18.2878 8.58 18.26V13.739C8.58 13.711 8.582 13.684 8.586 13.656L8.591 13.629L8.602 13.575L8.612 13.545C8.63571 13.4648 8.67667 13.3907 8.732 13.328L8.763 13.294L8.789 13.269C8.80948 13.2502 8.83119 13.2329 8.854 13.217L8.864 13.209L15.646 8.688C15.7508 8.61809 15.874 8.58078 16 8.58078C16.126 8.58078 16.2492 8.61809 16.354 8.688L23.136 13.209L23.146 13.217L23.176 13.239L23.211 13.269C23.221 13.277 23.228 13.285 23.237 13.294C23.2675 13.3241 23.2944 13.3576 23.317 13.394L23.336 13.424C23.3435 13.4381 23.3505 13.4524 23.357 13.467L23.371 13.497C23.378 13.513 23.383 13.529 23.388 13.544L23.398 13.575C23.402 13.593 23.406 13.611 23.408 13.629L23.414 13.656C23.4179 13.6835 23.4199 13.7112 23.42 13.739V18.261ZM16 4C9.373 4 4 9.372 4 16C4 22.627 9.373 28 16 28C22.628 28 28 22.628 28 16C28 9.373 22.628 4 16 4ZM16 14.492L13.745 16L16 17.51L18.255 16L16 14.492ZM16.638 18.616V21.591L21.634 18.261L19.402 16.768L16.638 18.616ZM10.366 18.26L15.362 21.59V18.616L12.598 16.767L10.366 18.26ZM21.634 13.74L16.638 10.41V13.384L19.402 15.234L21.634 13.74ZM15.362 13.384V10.41L10.366 13.74L12.598 15.233L15.362 13.384ZM9.856 14.933V17.067L11.45 16L9.856 14.933Z" fill="black"/>
</g>
<defs>
<clipPath id="clip0_1_137">
<rect width="24" height="24" fill="white" transform="translate(4 4)"/>
</clipPath>
</defs>
</svg>
