<svg width="32" height="32" viewBox="0 0 32 32" fill="none" xmlns="http://www.w3.org/2000/svg">
<rect width="32" height="32" rx="6" fill="#FDF6E3"/>
<g clip-path="url(#clip0_6_10)">
<path d="M4.81851 10.4095H12.65C13.7185 10.456 14.563 10.6565 15.193 11.0205C15.912 11.436 16.486 12.0425 16.9105 12.85C17.335 13.6575 17.55 14.628 17.55 15.7665C17.55 16.8819 17.3462 17.8775 16.9385 18.7535C16.5308 19.6295 15.9397 20.3232 15.165 20.8345C14.3857 21.3449 13.32 21.6 11.968 21.6H7.35251V14.74H9.68601V20.0085H11.4265C12.3365 20.0085 13.032 19.8685 13.5125 19.584C13.993 19.2995 14.376 18.8235 14.656 18.1515C14.936 17.4795 15.076 16.728 15.076 15.9015C15.076 15.108 14.9405 14.408 14.6655 13.797C14.3905 13.186 14.0155 12.7235 13.5315 12.411C13.0475 12.0985 12.234 11.9395 11.0905 11.9395H9.68151L5.10801 11.935C4.62416 13.2356 4.37759 14.6124 4.38001 16C4.38001 22.4165 9.58351 27.62 16 27.62C19.0219 27.6232 21.9254 26.4461 24.092 24.3395H27.2465C25.9449 26.0966 24.2495 27.524 22.2963 28.507C20.3431 29.4901 18.1866 30.0014 16 30C8.26751 30 2.00001 23.7325 2.00001 16C1.99787 14.0764 2.39348 12.173 3.16201 10.4095H4.81851Z" fill="#2874AD"/>
<path d="M28.15 21.6095H19.4V10.4095H21.7335V20.018H26.9085C27.3834 18.7317 27.6258 17.3712 27.6245 16C27.6245 9.5835 22.4215 4.38 16.0045 4.38C12.9732 4.37551 10.0611 5.56039 7.89402 7.68H4.74402C6.04385 5.9174 7.73978 4.485 9.695 3.49836C11.6502 2.51172 13.81 1.99846 16 2C22.7 2 28.3 6.704 29.678 12.99C29.8923 13.979 30.0003 14.9881 30 16C30.0028 17.9303 29.6056 19.8403 28.8335 21.6095H28.15Z" fill="#2874AD"/>
</g>
<defs>
<clipPath id="clip0_6_10">
<rect width="28" height="28" fill="white" transform="translate(2 2)"/>
</clipPath>
</defs>
</svg>
