<svg width="32" height="32" viewBox="0 0 32 32" fill="none" xmlns="http://www.w3.org/2000/svg">
<rect width="32" height="32" rx="6" fill="white"/>
<g clip-path="url(#clip0_1_140)">
<path d="M28 16.073C28 9.446 22.627 4.073 16 4.073C9.373 4.073 4 9.446 4 16.073C4 22.063 8.388 27.027 14.125 27.927V19.542H11.078V16.072H14.125V13.43C14.125 10.423 15.917 8.761 18.658 8.761C19.97 8.761 21.344 8.996 21.344 8.996V11.949H19.83C18.339 11.949 17.874 12.874 17.874 13.823V16.073H21.202L20.67 19.543H17.874V27.928C23.612 27.027 28 22.062 28 16.073Z" fill="#1877F2"/>
</g>
<defs>
<clipPath id="clip0_1_140">
<rect width="24" height="24" fill="white" transform="translate(4 4)"/>
</clipPath>
</defs>
</svg>
