<svg width="150" height="150" viewBox="0 0 150 150" fill="none" xmlns="http://www.w3.org/2000/svg">
<rect width="150" height="150" rx="20" fill="white"/>
<g clip-path="url(#clip0_1_29)">
<path d="M136.58 69.29L80.69 13.41C77.47 10.19 72.25 10.19 69.02 13.41L57.44 25.01L72.16 39.73C75.6 38.58 79.51 39.36 82.23 42.08C84.98 44.83 85.74 48.79 84.57 52.21L98.75 66.4C102.19 65.21 106.15 65.98 108.88 68.72C112.73 72.56 112.73 78.77 108.88 82.61C105.05 86.44 98.85 86.44 95.01 82.61C92.14 79.72 91.42 75.48 92.86 71.96L79.59 58.75V93.55C80.53 94.01 81.41 94.63 82.19 95.41C85.99 99.26 85.99 105.45 82.19 109.28C78.36 113.13 72.12 113.13 68.28 109.28C64.45 105.45 64.45 99.26 68.28 95.42C69.25 94.46 70.34 93.73 71.51 93.25V58.11C70.35 57.62 69.25 56.93 68.31 55.97C65.4 53.06 64.7 48.81 66.2 45.26L51.74 30.73L13.4 69.03C10.2 72.26 10.2 77.48 13.4 80.7L69.29 136.58C72.51 139.8 77.73 139.8 80.95 136.58L136.58 80.95C139.81 77.73 139.81 72.51 136.58 69.29Z" fill="#F05032"/>
</g>
<defs>
<clipPath id="clip0_1_29">
<rect width="128" height="128" fill="white" transform="translate(11 11)"/>
</clipPath>
</defs>
</svg>
