<svg width="32" height="32" viewBox="0 0 32 32" fill="none" xmlns="http://www.w3.org/2000/svg">
<rect width="32" height="32" rx="6" fill="white"/>
<g clip-path="url(#clip0_1_144)">
<path d="M16 4.297C9.37 4.297 4 9.67 4 16.297C4 21.6 7.438 26.097 12.205 27.682C12.805 27.795 13.025 27.424 13.025 27.105C13.025 26.82 13.015 26.065 13.01 25.065C9.672 25.789 8.968 23.455 8.968 23.455C8.422 22.07 7.633 21.7 7.633 21.7C6.546 20.956 7.717 20.971 7.717 20.971C8.922 21.055 9.555 22.207 9.555 22.207C10.625 24.042 12.364 23.512 13.05 23.205C13.158 22.429 13.467 21.9 13.81 21.6C11.145 21.3 8.344 20.268 8.344 15.67C8.344 14.36 8.809 13.29 9.579 12.45C9.444 12.147 9.039 10.927 9.684 9.274C9.684 9.274 10.689 8.952 12.984 10.504C13.944 10.237 14.964 10.105 15.984 10.099C17.004 10.105 18.024 10.237 18.984 10.504C21.264 8.952 22.269 9.274 22.269 9.274C22.914 10.927 22.509 12.147 22.389 12.45C23.154 13.29 23.619 14.36 23.619 15.67C23.619 20.28 20.814 21.295 18.144 21.59C18.564 21.95 18.954 22.686 18.954 23.81C18.954 25.416 18.939 26.706 18.939 27.096C18.939 27.411 19.149 27.786 19.764 27.666C24.565 26.092 28 21.592 28 16.297C28 9.67 22.627 4.297 16 4.297Z" fill="black"/>
</g>
<defs>
<clipPath id="clip0_1_144">
<rect width="24" height="24" fill="white" transform="translate(4 4)"/>
</clipPath>
</defs>
</svg>
