<svg width="32" height="32" viewBox="0 0 32 32" fill="none" xmlns="http://www.w3.org/2000/svg">
<rect width="32" height="32" rx="6" fill="white"/>
<g clip-path="url(#clip0_1_146)">
<path d="M26.351 12.019L19.981 5.64898C18.9251 4.59315 17.4931 4 16 4C14.5068 4 13.0748 4.59315 12.019 5.64898L5.64898 12.019C4.59315 13.0748 4 14.5068 4 16C4 17.4931 4.59315 18.9251 5.64898 19.981L12.019 26.351C13.0748 27.4068 14.5068 28 16 28C17.4931 28 18.9251 27.4068 19.981 26.351L26.351 19.981C27.4068 18.9251 28 17.4931 28 16C28 14.5068 27.4068 13.0748 26.351 12.019ZM16 19.953C15.4809 19.953 14.9668 19.8507 14.4872 19.6521C14.0076 19.4534 13.5719 19.1622 13.2048 18.7952C12.8377 18.4281 12.5465 17.9923 12.3479 17.5127C12.1492 17.0331 12.047 16.5191 12.047 16C12.047 15.4809 12.1492 14.9668 12.3479 14.4872C12.5465 14.0076 12.8377 13.5719 13.2048 13.2048C13.5719 12.8377 14.0076 12.5465 14.4872 12.3479C14.9668 12.1492 15.4809 12.047 16 12.047C17.0484 12.047 18.0538 12.4635 18.7952 13.2048C19.5365 13.9461 19.953 14.9516 19.953 16C19.953 17.0484 19.5365 18.0538 18.7952 18.7952C18.0538 19.5365 17.0484 19.953 16 19.953Z" fill="#2962FF"/>
</g>
<defs>
<clipPath id="clip0_1_146">
<rect width="24" height="24" fill="white" transform="translate(4 4)"/>
</clipPath>
</defs>
</svg>
