<svg width="150" height="150" viewBox="0 0 150 150" fill="none" xmlns="http://www.w3.org/2000/svg">
<rect width="150" height="150" rx="20" fill="white"/>
<path fill-rule="evenodd" clip-rule="evenodd" d="M59.955 80H75.326C72.68 71 70.074 62.68 67.51 54.224C65.022 62.71 62.498 71 59.955 80ZM136.112 12H14.873C12.687 12 13 12.476 13 14.585V135.979C13 138.086 12.687 138 14.719 138H136.266C138.297 138 139 138.086 139 135.978V14.739C139 12.476 138.298 12 136.112 12ZM89.298 107C87.661 107 86.018 106.867 84.389 106.984C83.214 107.072 82.821 106.578 82.508 105.558C80.994 100.627 79.385 95.698 77.87 90.768C77.565 89.776 77.129 89.414 76.054 89.427C70.531 89.491 65.005 89.485 59.481 89.42C58.318 89.406 57.783 89.716 57.451 90.87C56.045 95.774 54.507 100.638 53.086 105.537C52.778 106.599 52.31 106.97 51.182 106.941C47.864 106.858 44.541 106.909 40.908 106.909C41.867 103.864 42.737 101.048 43.637 98.244C49.151 81.044 54.684 63.844 60.158 46.633C60.54 45.435 61.071 45.066 62.301 45.093C66.187 45.179 70.076 45.115 73.964 45.093C74.691 45.088 75.187 45.131 75.453 45.957C81.958 66.073 88.486 86.313 95.008 106.427C95.036 106.518 95.018 107 95.033 107H89.298ZM110 107H98V62H110V107ZM103.65 55.929C99.985 55.924 97.361 53.401 97.336 49.859C97.312 46.327 100.043 43.7 103.742 43.696C107.47 43.692 110.097 46.233 110.126 49.867C110.152 53.412 107.459 55.935 103.65 55.929Z" fill="#FAA625"/>
</svg>
