<svg width="32" height="32" viewBox="0 0 32 32" fill="none" xmlns="http://www.w3.org/2000/svg">
<rect width="32" height="32" rx="6" fill="white"/>
<g clip-path="url(#clip0_1_153)">
<path d="M17.54 16.0001C17.5453 17.8018 16.8354 19.532 15.566 20.8107C14.2967 22.0894 12.5717 22.8121 10.77 22.8201C8.96826 22.8121 7.24332 22.0894 5.97399 20.8107C4.70465 19.532 3.99468 17.8018 4 16.0001C3.99468 14.1983 4.70465 12.4681 5.97399 11.1894C7.24332 9.91067 8.96826 9.18799 10.77 9.18005C12.5717 9.18799 14.2967 9.91067 15.566 11.1894C16.8354 12.4681 17.5453 14.1983 17.54 16.0001ZM24.96 16.0001C24.96 19.5401 23.45 22.4201 21.58 22.4201C19.71 22.4201 18.19 19.5401 18.19 16.0001C18.19 12.4601 19.71 9.58005 21.58 9.58005C23.45 9.58005 24.96 12.4601 24.96 16.0001ZM28 16.0001C28 19.1701 27.47 21.7501 26.81 21.7501C26.15 21.7501 25.62 19.1701 25.62 16.0001C25.62 12.8301 26.15 10.2501 26.81 10.2501C27.47 10.2501 28 12.8301 28 16.0001Z" fill="black"/>
</g>
<defs>
<clipPath id="clip0_1_153">
<rect width="24" height="24" fill="white" transform="translate(4 4)"/>
</clipPath>
</defs>
</svg>
