<svg width="150" height="150" viewBox="0 0 150 150" fill="none" xmlns="http://www.w3.org/2000/svg">
<rect width="150" height="150" rx="20" fill="white"/>
<path d="M50.267 119.97L49.983 119.403C49.416 118.268 49.416 117.133 49.7 115.714H19.059L64.454 35.14L83.463 69.47L89.704 64.93L70.695 30.6C70.412 30.033 68.142 26.629 64.454 26.629C62.751 26.629 60.198 27.196 58.212 30.884L12.25 112.31C11.966 113.162 9.98001 116.85 11.682 119.97C12.817 121.673 14.52 123.375 18.492 123.375H57.077C53.105 123.375 51.119 121.672 50.267 119.97Z" fill="#00C58E"/>
<path d="M137.65 112.59L100.767 46.201C100.2 45.634 98.214 41.945 94.525 41.945C92.823 41.945 90.27 42.796 88.284 46.201L83.461 54.145V69.466L94.526 50.457L131.125 115.711H117.223C117.456 117.062 117.257 118.452 116.655 119.683L116.371 119.967C114.669 123.087 110.413 123.371 109.846 123.371H131.408C132.259 123.371 136.231 123.088 138.217 119.967C139.068 118.548 139.636 115.995 137.65 112.59Z" fill="#108775"/>
<path d="M117.51 119.97V119.686L117.794 119.119C118.077 117.984 118.361 116.849 118.077 115.714L116.943 112.31L88.005 61.809L83.749 54.149H83.465L79.209 61.809L50.271 112.309L49.137 115.714C48.8621 117.157 49.061 118.65 49.704 119.97C50.839 121.672 52.541 123.375 56.513 123.375H110.419C111.27 123.375 115.526 123.091 117.512 119.97H117.51ZM83.464 69.469L109.85 115.714H57.079L83.464 69.469Z" fill="#2F495E"/>
</svg>
