<svg width="150" height="150" viewBox="0 0 150 150" fill="none" xmlns="http://www.w3.org/2000/svg">
<rect width="150" height="150" rx="20" fill="white"/>
<path fill-rule="evenodd" clip-rule="evenodd" d="M61.246 52.616C57.564 51.691 53.877 51.988 49.986 52.594C49.986 59.399 49.972 66.021 50.023 72.644C50.025 72.983 50.534 73.573 50.864 73.618C55.107 74.191 59.327 74.237 63.295 72.303C67.4 70.303 69.491 66.121 68.949 61.211C68.457 56.74 65.81 53.763 61.246 52.616ZM138 74.963V14.285C138 12.189 138.023 12 135.988 12H14.479C12.5 12 12 12.19 12 14.186V135.695C12 137.713 12.252 137.716 14.209 137.716C54.764 137.717 95.44 137.707 135.995 137.753C137.568 137.755 137.99 137.336 137.986 135.794C137.932 115.517 138 95.238 138 74.963ZM67.352 80.803C61.795 82.785 56 82.896 50 82.431V105H39V103.598C39 84.703 38.913 65.81 38.86 46.916C38.854 45.347 39.103 44.589 40.871 44.409C49.203 43.557 57.488 42.599 65.773 44.542C74.679 46.629 79.814 52.517 80.204 60.652C80.687 70.726 76.26 77.626 67.352 80.803ZM111.662 93.557C111.238 99.328 107.984 103.117 102.647 104.949C95.505 107.401 88.402 106.832 81.422 104.058C80.279 103.603 80.058 103.027 80.435 101.862C81.122 99.736 81.625 97.55 82.155 95.576C85.106 96.442 87.912 97.523 90.819 98.034C92.872 98.395 95.091 98.183 97.178 97.856C99.049 97.562 100.395 96.292 100.702 94.284C101.014 92.243 100.399 90.475 98.597 89.389C97.165 88.527 95.587 87.91 94.074 87.187C91.641 86.024 89.048 85.112 86.804 83.657C77.973 77.93 80.848 67.274 86.741 63.261C89.894 61.115 93.383 60.163 97.118 60.032C101.511 59.878 105.741 60.636 109.896 62.655L107.701 70.444C105.961 69.828 104.341 69.028 102.631 68.71C100.602 68.332 98.474 68.121 96.426 68.288C93.68 68.513 92.072 70.408 92.072 72.758C92.072 74.15 92.6 75.328 93.761 76.003C95.427 76.972 97.195 77.771 98.947 78.582C100.843 79.459 102.845 80.133 104.67 81.134C109.54 83.804 112.075 87.934 111.662 93.557Z" fill="#80B5E2"/>
</svg>
