<svg width="150" height="150" viewBox="0 0 150 150" fill="none" xmlns="http://www.w3.org/2000/svg">
<rect width="150" height="150" rx="20" fill="white"/>
<path d="M75 44.039C41.26 44.039 13.906 57.901 13.906 75C13.906 92.099 41.26 105.961 75 105.961C108.74 105.961 136.094 92.099 136.094 75C136.094 57.901 108.74 44.039 75 44.039ZM59.103 81.032C57.645 82.396 56.026 82.959 54.243 83.539C52.46 84.12 50.191 84 47.432 84H41.179L39.446 94H32.145L38.66 60H52.7C56.924 60 60.005 61.215 61.942 63.432C63.879 65.649 64.461 68.796 63.689 72.769C63.37 74.406 62.833 75.928 62.075 77.284C61.2895 78.6831 60.2863 79.9483 59.103 81.032ZM80.414 84L83.295 69.58C83.623 67.892 83.503 66.638 82.934 66.025C82.364 65.411 81.152 65 79.299 65H73.509L69.778 84H62.534L69.049 51H76.293L74.561 60H81.014C85.075 60 87.875 60.815 89.416 62.231C90.957 63.647 91.419 65.587 90.803 68.759L87.772 84H80.414ZM120.673 72.822C120.355 74.459 119.817 75.955 119.06 77.31C118.302 78.667 117.312 79.908 116.089 81.032C114.631 82.396 113.011 82.959 111.229 83.539C109.447 84.12 107.176 84 104.417 84H98.164L96.432 94H89.131L95.645 60H109.686C113.91 60 116.991 61.215 118.927 63.432C120.862 65.649 121.445 68.85 120.673 72.822ZM106.919 65H101.918L99.191 79H103.633C106.575 79 108.769 78.71 110.209 77.6C111.651 76.492 112.622 74.772 113.127 72.179C113.611 69.688 113.391 67.745 112.467 66.721C111.542 65.697 109.693 65 106.919 65ZM49.934 65H44.932L42.205 79H46.646C49.589 79 51.782 78.71 53.223 77.6C54.664 76.492 55.636 74.772 56.14 72.179C56.624 69.688 56.404 67.745 55.48 66.721C54.556 65.697 52.708 65 49.934 65Z" fill="#6181B6"/>
</svg>
