<svg width="150" height="150" viewBox="0 0 150 150" fill="none" xmlns="http://www.w3.org/2000/svg">
<rect width="150" height="150" rx="20" fill="white"/>
<g clip-path="url(#clip0_1_74)">
<path d="M99.69 99.11C90.69 117.51 74.93 129.89 54.08 133.96C50.8831 134.743 47.6013 135.126 44.31 135.1C32.31 135.1 21.31 130.1 15.97 121.91C8.8 111 6.36 87.87 30 70.76C30.48 73.37 31.46 76.95 32.11 79.07C27.4693 82.5177 23.6708 86.9727 21 92.1C16.6 100.74 17.09 109.37 22.3 117.35C25.9 122.73 31.6 126 38.93 127C48.0854 128.159 57.3733 126.41 65.48 122C78.19 115.32 86.66 107.34 92.2 96.43C90.6335 94.8111 89.7063 92.6797 89.59 90.43C89.5063 88.0159 90.3837 85.6671 92.0298 83.8992C93.6758 82.1313 95.956 81.0886 98.37 81H98.71C101.058 80.9882 103.321 81.8795 105.03 83.4895C106.739 85.0994 107.764 87.3048 107.892 89.6493C108.021 91.9937 107.243 94.2979 105.72 96.0849C104.197 97.872 102.045 99.0051 99.71 99.25L99.69 99.11ZM128.36 78.91C140.57 92.75 140.9 109.04 136.18 118.49C131.78 127.12 120.18 135.76 104.58 135.76C97.2976 135.611 90.1337 133.889 83.58 130.71C85.87 129.08 89.12 126.47 90.91 124.84C95.9639 127.029 101.403 128.192 106.91 128.26C117.01 128.26 124.66 123.54 129.22 114.91C132.15 109.21 132.32 102.53 129.55 95.69C126.151 87.0838 120.103 79.7818 112.28 74.84C102.017 67.9214 89.9175 64.2332 77.54 64.25H74.61C73.9268 65.8283 72.8153 67.1837 71.4014 68.1628C69.9875 69.1419 68.3277 69.7056 66.61 69.79H66.3C63.9242 69.7608 61.6533 68.8065 59.9697 67.1299C58.2861 65.4533 57.3225 63.1864 57.2834 60.8107C57.2444 58.435 58.133 56.1377 59.7606 54.4067C61.3881 52.6756 63.6264 51.6473 66 51.54H66.33C67.9841 51.5412 69.6058 51.9983 71.0171 52.8609C72.4284 53.7236 73.5746 54.9585 74.33 56.43H76.94C97.74 56.43 116 64.41 128.36 78.91ZM45.61 101.91C45.4388 100.249 45.841 98.5802 46.75 97.18C37.63 81.38 32.75 61.35 40.24 40.5C45.61 24.83 59.13 14.24 73.79 14.24C89.43 14.24 105.72 27.93 107.67 54.31C105.23 53.5 101.67 52.31 99.53 51.87C99 43.24 91.71 21.74 74.44 22.06C68.25 22.23 59.13 25.16 54.44 31.18C48.6386 38.3662 45.2638 47.206 44.8 56.43C43.7007 69.0777 46.6681 81.7461 53.27 92.59C53.6345 92.4568 54.023 92.4023 54.41 92.43H54.73C57.1488 92.3862 59.4859 93.3051 61.2271 94.9845C62.9684 96.6639 63.9712 98.9662 64.015 101.385C64.0588 103.804 63.1399 106.141 61.4605 107.882C59.7811 109.623 57.4788 110.626 55.06 110.67H54.73C52.3703 110.662 50.1049 109.743 48.4058 108.105C46.7068 106.468 45.7053 104.238 45.61 101.88V101.91Z" fill="#764ABC"/>
</g>
<defs>
<clipPath id="clip0_1_74">
<rect width="128" height="128" fill="white" transform="translate(11 11)"/>
</clipPath>
</defs>
</svg>
