<svg width="150" height="150" viewBox="0 0 150 150" fill="none" xmlns="http://www.w3.org/2000/svg">
<rect width="150" height="150" rx="20" fill="white"/>
<path fill-rule="evenodd" clip-rule="evenodd" d="M12.219 67.156C12.219 67.859 12.426 68.323 12.542 68.774C13.298 71.707 14.923 74.224 16.851 76.52C19.597 79.792 22.96 82.426 26.405 84.903C29.393 87.051 32.442 89.151 35.442 91.283C35.957 91.649 36.444 92.07 37.003 92.519C36.522 92.779 36.122 93.008 35.706 93.219C31.747 95.227 27.938 97.478 24.427 100.205C22.311 101.849 20.265 103.596 18.82 105.879C16.495 109.551 15.672 113.463 17.405 117.64C17.911 118.86 18.683 119.914 19.772 120.693C20.125 120.945 20.521 121.195 20.934 121.293C21.992 121.542 23.07 121.705 24.141 121.902L27.174 121.9C30.528 121.601 33.581 120.452 36.34 118.548C40.652 115.572 43.557 111.582 44.806 106.461C45.714 102.739 45.751 99.013 44.681 95.308C44.5786 94.9648 44.4605 94.6264 44.327 94.294C44.197 93.961 44.044 93.637 43.864 93.222L50.74 89.268L50.843 89.356C50.718 89.765 50.585 90.173 50.472 90.586C49.655 93.57 49.112 96.606 49.307 99.703C49.515 103.003 50.436 106.092 52.368 108.849C53.93 111.079 57.652 111.162 59.312 108.924C59.901 108.129 60.472 107.298 60.901 106.411C62.022 104.096 63.06 101.74 64.131 99.4L64.318 98.972C64.241 100.08 64.151 101.053 64.11 102.027C64.046 103.548 64.135 105.06 64.655 106.507C65.1 107.745 65.857 108.67 67.275 108.833C68.245 108.944 69.018 108.5 69.731 107.937C70.8356 107.064 71.7511 105.976 72.422 104.738C74.323 101.247 76.275 97.777 77.998 94.198C79.862 90.327 81.492 86.343 83.223 82.406L83.509 81.708C83.918 83.315 84.203 84.889 84.728 86.379C85.338 88.108 86.093 89.796 86.915 91.437C87.304 92.212 87.259 92.715 86.72 93.365C84.464 96.085 82.247 98.838 80.028 101.588C79.537 102.195 79.048 102.813 78.639 103.476C78.3909 103.895 78.2278 104.358 78.159 104.84C78.0902 105.284 78.1957 105.737 78.4536 106.104C78.7114 106.471 79.1015 106.725 79.542 106.811C80.4311 107.002 81.3427 107.067 82.25 107.004C85.347 106.776 88.159 105.689 90.645 103.847C93.866 101.461 94.9 98.205 94.12 94.346C93.909 93.299 93.536 92.281 93.173 91.272C93.01 90.817 92.999 90.498 93.296 90.074C95.871 86.397 98.071 82.496 100.117 78.505C100.198 78.348 100.281 78.191 100.423 78.023C101.086 81.473 102.084 84.798 103.872 87.815C102.96 88.694 102.057 89.491 101.24 90.369C99.441 92.303 97.881 94.403 97.067 96.964C96.717 98.068 96.448 99.19 96.604 100.369C96.846 102.2 98.346 103.39 100.147 102.973C104.001 102.081 107.328 100.265 109.759 97.048C111.395 94.882 111.544 92.466 110.859 89.935C110.671 89.247 110.448 88.57 110.208 87.781C111.159 87.486 112.086 87.132 113.045 86.913C118.024 85.777 122.949 85.975 127.747 87.773C130.548 88.823 132.811 90.58 134.153 93.344C135.792 96.723 134.886 99.929 131.701 102.065C131.404 102.264 131.064 102.421 130.818 102.67C130.739 102.761 130.68 102.868 130.645 102.983C130.61 103.099 130.599 103.22 130.613 103.34C130.634 103.463 130.959 103.617 131.146 103.615C132.193 103.607 133.042 103.058 133.857 102.494C135.899 101.081 137.389 99.18 137.71 96.677L137.773 96.489L137.696 94.859C137.665 94.765 137.719 94.672 137.712 94.601C137.278 90.956 135.331 88.129 132.499 85.913C129.219 83.348 125.346 82.292 121.25 82.125C117.928 81.982 114.61 82.4927 111.485 83.628C110.588 83.953 109.699 84.338 108.797 84.701C108.676 84.482 108.546 84.272 108.439 84.055C107.513 82.159 106.391 80.347 106.143 78.173C105.967 76.629 105.751 75.087 106.118 73.56C106.471 72.091 106.931 70.647 107.364 69.198C107.587 68.452 107.43 68.034 106.718 67.698C106.47 67.5743 106.205 67.4874 105.932 67.44C104.182 67.186 102.456 67.331 100.761 67.824C100.161 67.999 99.725 68.335 99.592 68.999C99.516 69.38 99.361 69.745 99.253 70.121C98.81 71.684 98.496 73.277 97.78 74.766C95.986 78.501 93.938 82.095 91.842 85.663C91.615 86.048 91.376 86.426 91.09 86.893C90.354 85.353 89.569 83.971 89.331 82.351C89.062 80.519 88.85 78.69 89.306 76.872C89.645 75.516 90.088 74.185 90.496 72.847C90.689 72.211 90.6 71.877 90.024 71.542C89.733 71.373 89.404 71.223 89.076 71.174C87.2816 70.9007 85.4481 71.0507 83.722 71.612C83.179 71.788 82.894 72.139 82.728 72.699C82.24 74.351 81.824 76.043 81.139 77.614C78.365 83.974 75.511 90.301 72.66 96.627C72.065 97.948 71.368 99.223 70.697 100.509C70.527 100.835 70.279 101.122 70.067 101.428C69.897 101.227 69.831 101.089 69.832 100.951C69.837 100.138 69.74 99.301 69.895 98.515C70.371 96.1378 70.8971 93.771 71.473 91.416C71.943 89.47 72.49 87.542 73.011 85.609C73.186 84.962 73.189 84.357 72.724 83.813C71.943 82.902 70.311 82.702 69.343 83.404L68.915 83.646L68.998 82.956C69.202 81.477 69.243 80.003 68.837 78.546C68.331 76.73 67.035 75.685 65.151 75.743C64.273 75.77 63.351 75.92 62.538 76.24C59.119 77.58 56.49 79.953 54.252 82.808C54.0445 83.0731 53.7874 83.2952 53.495 83.462C50.602 85.066 47.7 86.65 44.799 88.24L41.57 90.009C40.704 89.183 39.917 88.326 39.024 87.599C36.297 85.375 33.526 83.206 30.78 81.007C28.346 79.058 25.988 77.028 24.184 74.447C22.842 72.527 21.977 70.426 21.894 68.052C21.789 65.027 22.647 62.263 24.187 59.69C26.157 56.398 28.844 53.756 31.798 51.363C34.923 48.833 38.303 46.685 41.806 44.724C46.707 41.981 51.748 39.553 57.153 37.95C62.695 36.306 68.318 35.365 74.118 36.021C76.398 36.279 78.612 36.801 80.645 37.916C82.202 38.769 83.479 39.886 84.073 41.632C84.659 43.35 84.641 45.091 84.235 46.836C83.41 50.37 81.475 53.283 79.04 55.886C75.046 60.153 70.174 63.058 64.689 64.977C61.5353 66.0818 58.254 66.7817 54.924 67.06C52.195 67.289 49.523 67.047 46.939 66.098C45.228 65.469 43.738 64.507 42.54 63.111C42.326 62.861 42.052 62.59 41.653 62.824C41.262 63.054 41.193 63.426 41.324 63.803C41.543 64.429 41.745 65.081 42.086 65.641C42.943 67.046 44.193 68.065 45.569 68.939C48.212 70.62 51.166 71.185 54.229 71.316C58.877 71.517 63.412 70.823 67.883 69.576C74.266 67.796 79.816 64.652 84.267 59.692C87.973 55.562 90.62 50.901 91.187 45.273C91.464 42.526 91.169 39.835 89.883 37.329C88.488 34.614 86.27 32.595 83.618 31.204C79.756 29.179 75.588 28 71.286 28H66.976C61.766 28 56.729 29.493 51.833 31.274C48.127 32.623 44.493 34.215 40.965 35.977C33.282 39.816 26.127 44.445 20.25 50.81C17.322 53.981 14.843 57.48 13.417 61.6C12.9866 62.8301 12.6158 64.0802 12.306 65.346M40.145 101.359C39.812 105.818 37.791 109.433 34.488 112.361C32.63 114.007 30.499 115.179 28.017 115.591C27.117 115.74 26.196 115.776 25.323 115.403C24.078 114.871 23.799 113.766 23.775 112.589C23.738 110.713 24.395 109.017 25.296 107.403C26.472 105.299 28.196 103.695 30.037 102.197C32.937 99.836 36.083 97.838 39.305 95.952L39.548 95.852C40.046 97.692 40.283 99.509 40.145 101.359ZM65.303 81.98C65.068 83.404 64.774 84.829 64.358 86.209C62.92 90.986 61.073 95.615 59.076 100.182C58.707 101.027 58.17 101.798 57.703 102.599C57.6236 102.722 57.5284 102.834 57.42 102.933C56.842 103.504 56.294 103.474 56.002 102.727C55.662 101.859 55.453 100.93 55.273 100.011C55.152 99.394 55.181 98.746 55.143 98.114C55.182 93.62 56.553 89.536 58.879 85.734C59.838 84.166 60.882 82.672 62.477 81.68C62.9732 81.3715 63.51 81.1339 64.072 80.974C64.922 80.735 65.444 81.128 65.303 81.98ZM82.467 103.848L88.636 96.645C88.893 99.32 84.346 104.66 82.467 103.848ZM102.17 99.001C101.734 99.251 101.259 99.431 100.812 99.662C100.403 99.874 100.268 99.66 100.256 99.308C100.25 99.0643 100.281 98.8212 100.349 98.587C101.182 95.649 102.715 93.141 104.996 91.101L105.156 91.019C106.241 94.054 104.987 97.387 102.17 99.001Z" fill="#CB6699"/>
</svg>
