<svg width="150" height="150" viewBox="0 0 150 150" fill="none" xmlns="http://www.w3.org/2000/svg">
<rect width="150" height="150" rx="20" fill="white"/>
<path d="M40.62 23.85L75 20.24L109.38 23.85L136 59.29L75 129.76L14 59.29L40.62 23.85Z" fill="#FDB300"/>
<path d="M38.71 59.29L75 129.76L14 59.29H38.71ZM111.29 59.29L75 129.76L136 59.29H111.29Z" fill="#EA6C00"/>
<path d="M38.71 59.29H111.29L75 129.76L38.71 59.29Z" fill="#FDAD00"/>
<path d="M75 20.24L40.62 23.85L38.71 59.29L75 20.24ZM75 20.24L109.38 23.85L111.29 59.29L75 20.24Z" fill="#FDD231"/>
<path d="M136 59.29L109.38 23.85L111.29 59.29H136Z" fill="#FDAD00"/>
<path d="M75 20.24L38.71 59.29H111.29L75 20.24Z" fill="#FEEEB7"/>
<path d="M14 59.29L40.62 23.85L38.71 59.29H14Z" fill="#FDAD00"/>
</svg>
