<svg width="32" height="32" viewBox="0 0 32 32" fill="none" xmlns="http://www.w3.org/2000/svg">
<rect width="32" height="32" rx="6" fill="white"/>
<path d="M19.725 4L18.005 5.277L24.395 13.865L26.111 12.588L19.725 4ZM15.785 7.418L14.416 9.062L22.641 15.912L24.01 14.268L15.785 7.418ZM12.635 11.883L11.73 13.823L21.432 18.34L22.336 16.4L12.635 11.883ZM10.785 16.743L10.345 18.836L20.818 21.037L21.258 18.945L10.785 16.742V16.743ZM5.89001 19.47V28H25.08V19.47H22.947V25.867H8.02101V19.471L5.89001 19.47ZM10.155 21.603V23.733H20.815V21.603H10.154H10.155Z" fill="#F58025"/>
</svg>
