<svg width="32" height="32" viewBox="0 0 32 32" fill="none" xmlns="http://www.w3.org/2000/svg">
<rect width="32" height="32" rx="6" fill="#2F4F6E"/>
<g clip-path="url(#clip0_2_2)">
<path d="M29 3H3V29H29V3Z" fill="#2F4F6E"/>
<path d="M22.1962 21.8308V25.0143C22.1903 25.0168 22.184 25.0192 22.1781 25.0217C21.7998 25.1988 21.4151 25.3613 21.0241 25.5091C20.0938 25.8605 19.1316 26.0563 18.1381 26.0989C18.0505 26.1023 17.9629 26.1082 17.8748 26.1126C17.6825 26.1126 17.2724 26.1077 17.2592 26.1072C16.9523 26.0989 16.647 26.0749 16.3425 26.0347C15.8429 25.9682 15.3549 25.8542 14.8821 25.677C14.1309 25.3966 13.4687 24.9811 12.9196 24.3918C12.4939 23.9347 12.2085 23.4081 12.096 22.7895C12.0103 22.3172 11.9766 21.8415 11.9766 21.3629C11.9746 18.9888 11.9756 16.5604 11.9756 14.1863H9.80389V11.291C10.0442 11.1961 10.2857 11.1129 10.5201 11.0042C11.7598 10.4282 12.6666 9.51546 13.2421 8.27631C13.5236 7.66945 13.6816 7.0254 13.7903 6.36766C13.8167 6.20809 13.8378 6.0476 13.8613 5.88757H16.7292L16.7301 11.0111H21.5283V14.1864H16.7277C16.7277 14.1864 16.7307 19.8351 16.7351 20.0234C16.7454 20.4526 16.7659 20.8809 16.8315 21.3062C16.9025 21.7633 17.131 22.1176 17.5162 22.3711C17.8935 22.6192 18.31 22.7611 18.7583 22.8091C19.2042 22.8571 19.6466 22.8233 20.0855 22.7347C20.8518 22.5805 21.5468 22.2585 22.1962 21.8308Z" fill="white"/>
</g>
<defs>
<clipPath id="clip0_2_2">
<rect width="26" height="26" fill="white" transform="translate(3 3)"/>
</clipPath>
</defs>
</svg>
