<svg width="32" height="32" viewBox="0 0 32 32" fill="none" xmlns="http://www.w3.org/2000/svg">
<rect width="32" height="32" rx="6" fill="white"/>
<path d="M27.953 8.56997C27.0545 8.96557 26.1026 9.2267 25.128 9.34496C26.1541 8.72822 26.9224 7.76101 27.291 6.62197C26.34 7.17697 25.286 7.58097 24.164 7.80597C23.4238 7.01439 22.4429 6.48939 21.3736 6.31247C20.3044 6.13555 19.2067 6.31662 18.2509 6.82756C17.2952 7.3385 16.5349 8.15072 16.0881 9.13809C15.6412 10.1255 15.533 11.2327 15.78 12.288C11.69 12.095 8.067 10.13 5.64 7.16197C5.19879 7.91178 4.96866 8.76699 4.974 9.63697C4.974 11.347 5.844 12.85 7.162 13.733C6.38086 13.7081 5.61697 13.4969 4.934 13.117V13.177C4.93356 14.3134 5.32627 15.4149 6.04551 16.2947C6.76474 17.1745 7.76621 17.7784 8.88 18.004C8.1583 18.1973 7.40241 18.2264 6.668 18.089C6.98412 19.067 7.59766 19.9219 8.42301 20.5345C9.24837 21.147 10.2444 21.4867 11.272 21.506C9.53153 22.8719 7.38248 23.6133 5.17 23.611C4.78 23.611 4.391 23.588 4 23.544C6.25571 24.9883 8.87851 25.755 11.557 25.753C20.61 25.753 25.555 18.257 25.555 11.768C25.555 11.558 25.555 11.348 25.54 11.138C26.506 10.4428 27.3392 9.57978 28 8.58997L27.953 8.56997Z" fill="#1DA1F2"/>
</svg>
