<svg width="150" height="150" viewBox="0 0 150 150" fill="none" xmlns="http://www.w3.org/2000/svg">
<rect width="150" height="150" rx="20" fill="white"/>
<path d="M128.29 109.1L77.24 138V115.49L109 98L128.29 109.1ZM131.79 105.94V45.55L113.11 56.35V95.16L131.78 105.93L131.79 105.94ZM21.71 109.1L72.71 137.98V115.49L40.94 98L21.71 109.1ZM18.21 105.94V45.55L36.89 56.35V95.16L18.21 105.94ZM20.4 41.64L72.76 12V33.76L39.21 52.21L38.94 52.36L20.4 41.64ZM129.58 41.64L77.24 12V33.76L110.79 52.2L111.06 52.35L129.6 41.64H129.58ZM72.76 110.37L41.37 93.1V58.92L72.76 77V110.37ZM77.24 110.37L108.63 93.12V58.92L77.24 77V110.37ZM43.5 55L75 37.66L106.5 55L75 73.16L43.5 55Z" fill="#1C78C0"/>
</svg>
