<svg width="150" height="150" viewBox="0 0 150 150" fill="none" xmlns="http://www.w3.org/2000/svg">
<rect width="150" height="150" rx="20" fill="white"/>
<path d="M138 14.3C138 12.2 138 12 136 12H14.5C12.5 12 12 12.2 12 14.2V135.7C12 137.7 12.3 137.7 14.2 137.7H136C137.6 137.7 138 137.3 138 135.7C137.9 115.5 138 95.2 138 75V14.3ZM69.7 105L60 83.2L49.8 105H38.6L53.1 75.7L39.6 44.7L51.1 44.8L59.6 65.1L70 44.7H80.8L66.2 74.1L80.7 105H69.7ZM113.3 45.8V102.4C113.3 103.9 113.1 104.8 111.6 104.9C104.6 105.8 97.6 106.8 90.7 104.8C83.2 102.7 78.9 96.8 78.6 88.7C78.2 78.7 82 71.8 89.4 68.6C94 66.6 98.7 66.5 104 67V44.8H113.3V45.8ZM93.8 97.2C97.1 98.1 100.4 97.8 103.8 97.2V77.2C103.8 76.9 103.4 76.3 103.1 76.2C99.4 75.6 95.6 75.6 92.1 77.5C88.5 79.5 86.6 83.7 87 88.6C87.3 93.1 89.7 96 93.8 97.2Z" fill="#DD80BC"/>
</svg>
