<svg width="32" height="32" viewBox="0 0 32 32" fill="none" xmlns="http://www.w3.org/2000/svg">
<rect width="32" height="32" rx="6" fill="white"/>
<path d="M27.498 10.186C27.3624 9.67532 27.095 9.20918 26.7226 8.83431C26.3502 8.45943 25.8858 8.18899 25.376 8.05004C23.505 7.54504 16 7.54504 16 7.54504C16 7.54504 8.495 7.54504 6.623 8.05004C6.11341 8.18923 5.64929 8.45978 5.27708 8.83463C4.90486 9.20947 4.63759 9.67548 4.502 10.186C4 12.07 4 16 4 16C4 16 4 19.93 4.502 21.814C4.63759 22.3248 4.90498 22.7909 5.27739 23.1658C5.64981 23.5407 6.11418 23.8111 6.624 23.95C8.495 24.455 16 24.455 16 24.455C16 24.455 23.505 24.455 25.377 23.95C25.8869 23.8112 26.3513 23.5408 26.7237 23.1659C27.0961 22.791 27.3635 22.3248 27.499 21.814C28 19.93 28 16 28 16C28 16 28 12.07 27.498 10.186ZM13.545 19.568V12.432L19.818 16L13.545 19.568Z" fill="#FF0000"/>
</svg>
